# xmcd
#
# Track frame offsets:
#	150
#	16351
#	32227
#	48113
#	65662
#	81430
#	96873
#	112002
#	127584
#	142335
#	157572
#	174049
#	188573
#	204582
#	217686
#	229886
#	252284
#	268364
#	284416
#	298094
#
# Disc length: 4208 seconds
#
# Revision: 1
# Processed by: cddbd v1.5.2PL0 Copyright (c) Steve Scherf et al.
# Submitted via: audiograbber 1.83.01
#
DISCID=1f106e14
DTITLE=Ed Bruce - Best of the Best of
DYEAR=1982
DGENRE=Country
TTITLE0=You've Got Her Eyes
TTITLE1=I'll Be There TO Catch You
TTITLE2=You're Not Leaving Here Tonigh
TTITLE3=It Would Take A Fool
TTITLE4=In Mexico
TTITLE5=If It Was Easy
TTITLE6=It's The Lovers (Who Give Love
TTITLE7=You're The Best Break This Old
TTITLE8=Love's Found You And Me
TTITLE9=If I Just Knew What To Say
TTITLE10=She Never Could Dance
TTITLE11=It's All In Your Mind
TTITLE12=Tell 'Em I've Gone Crazy
TTITLE13=Old Time's Sake
TTITLE14=Someone Who Would Care
TTITLE15=The Last Cowboy Song
TTITLE16=(When You Fall In Love) Everyt
TTITLE17=After All
TTITLE18=Ever, Never Lovin' You
TTITLE19=My First Taste of Texas
EXTD=
EXTT0=
EXTT1=
EXTT2=
EXTT3=
EXTT4=
EXTT5=
EXTT6=
EXTT7=
EXTT8=
EXTT9=
EXTT10=
EXTT11=
EXTT12=
EXTT13=
EXTT14=
EXTT15=
EXTT16=
EXTT17=
EXTT18=
EXTT19=
PLAYORDER=
